<svg width="102" height="102" viewBox="0 0 102 102" fill="none" xmlns="http://www.w3.org/2000/svg">
    <g clip-path="url(#clip0_435_453)">
        <path
            d="M96.11 20.2047L80.1406 20.0568L86.4709 26.5022L73.7916 26.4097L67.3401 20.0343L51.4662 19.9121L57.7966 26.3575L45.0217 26.2394L38.6657 19.8896L22.6994 19.7425L32.1914 29.4113L96.0208 29.7882L96.1092 20.2078L96.11 20.2047ZM21.0392 26.3207C19.4036 25.8824 17.6609 26.1118 16.1944 26.9585C14.728 27.8051 13.6579 29.1997 13.2197 30.8353C12.7814 32.4709 13.0109 34.2136 13.8575 35.68C14.7042 37.1465 16.0987 38.2165 17.7343 38.6548C19.3699 39.0931 21.1126 38.8636 22.5791 38.017C24.0455 37.1703 25.1156 35.7758 25.5538 34.1402C25.9921 32.5046 25.7626 30.7619 24.916 29.2954C24.0693 27.829 22.6748 26.7589 21.0392 26.3207V26.3207ZM30.8947 38.8762L19.1654 45.6481L34.583 49.7792L46.3123 43.0073L30.8947 38.8762ZM58.6464 46.3123L46.9172 53.0842L62.3348 57.2153L74.0641 50.4434L58.6464 46.3123ZM86.3982 53.7483L74.6689 60.5202L90.0866 64.6514L92.5653 55.4008L86.3982 53.7483ZM9.08854 46.2529L2.4787 70.9212C1.82131 73.3746 2.16546 75.9887 3.43544 78.1883C4.70542 80.388 6.79719 81.9931 9.25061 82.6505L70.9213 99.1751C73.3747 99.8325 75.9887 99.4883 78.1884 98.2183C80.3881 96.9484 81.9932 94.8566 82.6505 92.4032L89.2604 67.7349L9.08854 46.2529Z"
            fill="#E6E6E6" />
        <g clip-path="url(#clip1_435_453)">
            <path
                d="M96.11 20.2047L80.1406 20.0568L86.4709 26.5022L73.7916 26.4097L67.3401 20.0343L51.4662 19.9121L57.7966 26.3575L45.0217 26.2394L38.6657 19.8896L22.6994 19.7425L32.1914 29.4113L96.0208 29.7882L96.1092 20.2078L96.11 20.2047ZM21.0392 26.3207C19.4036 25.8824 17.6609 26.1118 16.1944 26.9585C14.728 27.8051 13.6579 29.1997 13.2197 30.8353C12.7814 32.4709 13.0109 34.2136 13.8575 35.68C14.7042 37.1465 16.0987 38.2165 17.7343 38.6548C19.3699 39.0931 21.1126 38.8636 22.5791 38.017C24.0455 37.1703 25.1156 35.7758 25.5538 34.1402C25.9921 32.5046 25.7626 30.7619 24.916 29.2954C24.0693 27.829 22.6748 26.7589 21.0392 26.3207V26.3207ZM30.8947 38.8762L19.1654 45.6481L34.583 49.7792L46.3123 43.0073L30.8947 38.8762ZM58.6464 46.3123L46.9172 53.0842L62.3348 57.2153L74.0641 50.4434L58.6464 46.3123ZM86.3982 53.7483L74.6689 60.5202L90.0866 64.6514L92.5653 55.4008L86.3982 53.7483ZM9.08854 46.2529L2.4787 70.9212C1.82131 73.3746 2.16546 75.9887 3.43544 78.1883C4.70542 80.388 6.79719 81.9931 9.25061 82.6505L70.9213 99.1751C73.3747 99.8325 75.9887 99.4883 78.1884 98.2183C80.3881 96.9484 81.9932 94.8566 82.6505 92.4032L89.2604 67.7349L9.08854 46.2529Z"
                fill="#E6E6E6" />
        </g>
    </g>
    <defs>
        <clipPath id="clip0_435_453">
            <rect width="83" height="83" fill="white" transform="translate(21.4819) rotate(15)" />
        </clipPath>
        <clipPath id="clip1_435_453">
            <rect width="83" height="83" fill="white" transform="translate(21.4819) rotate(15)" />
        </clipPath>
    </defs>
</svg>