<svg width="40" height="40" viewBox="0 0 68 68" fill="none" xmlns="http://www.w3.org/2000/svg">
    <path
        d="M13.4998 50.9998C16.3332 48.8332 19.4998 47.1243 22.9998 45.8732C26.4998 44.6243 30.1665 43.9998 33.9998 43.9998C37.8332 43.9998 41.4998 44.6243 44.9998 45.8732C48.4998 47.1243 51.6665 48.8332 54.4998 50.9998C56.4443 48.7221 57.9587 46.1387 59.0432 43.2498C60.1254 40.3609 60.6665 37.2776 60.6665 33.9998C60.6665 26.6109 58.0698 20.3187 52.8765 15.1232C47.6809 9.92984 41.3887 7.33317 33.9998 7.33317C26.6109 7.33317 20.3198 9.92984 15.1265 15.1232C9.93095 20.3187 7.33317 26.6109 7.33317 33.9998C7.33317 37.2776 7.87539 40.3609 8.95984 43.2498C10.0421 46.1387 11.5554 48.7221 13.4998 50.9998ZM33.9998 37.3332C30.7221 37.3332 27.9576 36.2087 25.7065 33.9598C23.4576 31.7087 22.3332 28.9443 22.3332 25.6665C22.3332 22.3887 23.4576 19.6243 25.7065 17.3732C27.9576 15.1243 30.7221 13.9998 33.9998 13.9998C37.2776 13.9998 40.0421 15.1243 42.2932 17.3732C44.5421 19.6243 45.6665 22.3887 45.6665 25.6665C45.6665 28.9443 44.5421 31.7087 42.2932 33.9598C40.0421 36.2087 37.2776 37.3332 33.9998 37.3332ZM33.9998 67.3332C29.3887 67.3332 25.0554 66.4576 20.9998 64.7065C16.9443 62.9576 13.4165 60.5832 10.4165 57.5832C7.4165 54.5832 5.04206 51.0554 3.29317 46.9998C1.54206 42.9443 0.666504 38.6109 0.666504 33.9998C0.666504 29.3887 1.54206 25.0554 3.29317 20.9998C5.04206 16.9443 7.4165 13.4165 10.4165 10.4165C13.4165 7.4165 16.9443 5.04095 20.9998 3.28984C25.0554 1.54095 29.3887 0.666504 33.9998 0.666504C38.6109 0.666504 42.9443 1.54095 46.9998 3.28984C51.0554 5.04095 54.5832 7.4165 57.5832 10.4165C60.5832 13.4165 62.9576 16.9443 64.7065 20.9998C66.4576 25.0554 67.3332 29.3887 67.3332 33.9998C67.3332 38.6109 66.4576 42.9443 64.7065 46.9998C62.9576 51.0554 60.5832 54.5832 57.5832 57.5832C54.5832 60.5832 51.0554 62.9576 46.9998 64.7065C42.9443 66.4576 38.6109 67.3332 33.9998 67.3332Z"
        fill="#30D0D0" />
</svg>