<svg width="40" height="40" viewBox="0 0 68 68" fill="none" xmlns="http://www.w3.org/2000/svg">
    <path
        d="M13.5003 51.0001C16.3337 48.8334 19.5003 47.1245 23.0003 45.8734C26.5003 44.6245 30.167 44.0001 34.0003 44.0001C37.8337 44.0001 41.5003 44.6245 45.0003 45.8734C48.5003 47.1245 51.667 48.8334 54.5003 51.0001C56.4448 48.7223 57.9592 46.139 59.0437 43.2501C60.1259 40.3612 60.667 37.2779 60.667 34.0001C60.667 26.6112 58.0703 20.319 52.877 15.1234C47.6814 9.93008 41.3892 7.33341 34.0003 7.33341C26.6114 7.33341 20.3203 9.93008 15.127 15.1234C9.93144 20.319 7.33366 26.6112 7.33366 34.0001C7.33366 37.2779 7.87588 40.3612 8.96033 43.2501C10.0425 46.139 11.5559 48.7223 13.5003 51.0001ZM34.0003 37.3334C30.7225 37.3334 27.9581 36.209 25.707 33.9601C23.4581 31.709 22.3337 28.9445 22.3337 25.6667C22.3337 22.389 23.4581 19.6245 25.707 17.3734C27.9581 15.1245 30.7225 14.0001 34.0003 14.0001C37.2781 14.0001 40.0425 15.1245 42.2937 17.3734C44.5425 19.6245 45.667 22.389 45.667 25.6667C45.667 28.9445 44.5425 31.709 42.2937 33.9601C40.0425 36.209 37.2781 37.3334 34.0003 37.3334ZM34.0003 67.3334C29.3892 67.3334 25.0559 66.4579 21.0003 64.7067C16.9448 62.9579 13.417 60.5834 10.417 57.5834C7.41699 54.5834 5.04255 51.0556 3.29366 47.0001C1.54255 42.9445 0.666992 38.6112 0.666992 34.0001C0.666992 29.389 1.54255 25.0556 3.29366 21.0001C5.04255 16.9445 7.41699 13.4167 10.417 10.4167C13.417 7.41675 16.9448 5.04119 21.0003 3.29008C25.0559 1.54119 29.3892 0.666748 34.0003 0.666748C38.6114 0.666748 42.9448 1.54119 47.0003 3.29008C51.0559 5.04119 54.5837 7.41675 57.5837 10.4167C60.5837 13.4167 62.9581 16.9445 64.707 21.0001C66.4581 25.0556 67.3337 29.389 67.3337 34.0001C67.3337 38.6112 66.4581 42.9445 64.707 47.0001C62.9581 51.0556 60.5837 54.5834 57.5837 57.5834C54.5837 60.5834 51.0559 62.9579 47.0003 64.7067C42.9448 66.4579 38.6114 67.3334 34.0003 67.3334ZM34.0003 60.6667C36.9448 60.6667 39.7225 60.2367 42.3337 59.3767C44.9448 58.5145 47.3337 57.2779 49.5003 55.6667C47.3337 54.0556 44.9448 52.819 42.3337 51.9567C39.7225 51.0967 36.9448 50.6667 34.0003 50.6667C31.0559 50.6667 28.2781 51.0967 25.667 51.9567C23.0559 52.819 20.667 54.0556 18.5003 55.6667C20.667 57.2779 23.0559 58.5145 25.667 59.3767C28.2781 60.2367 31.0559 60.6667 34.0003 60.6667ZM34.0003 30.6667C35.4448 30.6667 36.6392 30.1945 37.5837 29.2501C38.5281 28.3056 39.0003 27.1112 39.0003 25.6667C39.0003 24.2223 38.5281 23.0279 37.5837 22.0834C36.6392 21.139 35.4448 20.6667 34.0003 20.6667C32.5559 20.6667 31.3614 21.139 30.417 22.0834C29.4725 23.0279 29.0003 24.2223 29.0003 25.6667C29.0003 27.1112 29.4725 28.3056 30.417 29.2501C31.3614 30.1945 32.5559 30.6667 34.0003 30.6667Z"
        fill="#30D0D0" />
</svg>