<svg width="204" height="64" viewBox="0 0 204 64" fill="none" xmlns="http://www.w3.org/2000/svg">
    <path
        d="M15.9391 25.1315C22.9322 49.8832 22.9905 50.2631 22.1163 52.4787L21.2422 54.7576L20.5429 52.542C20.1932 51.3392 16.8715 39.6913 13.2001 26.7774C6.96463 4.62112 6.49843 3.16519 5.21636 3.16519C4.16739 3.16519 3.93429 3.41841 4.16739 4.24136C4.34222 4.87439 6.3236 11.7744 8.53808 19.6241C19.5522 58.3659 20.0184 59.822 20.9508 60.0119C21.5919 60.1385 23.2819 56.4035 27.5943 45.2621C32.606 32.0949 33.3636 30.3857 34.0629 31.3986C34.4708 32.0316 34.8205 33.0445 34.8205 33.7408C34.8205 34.6903 27.1863 55.3274 24.156 62.4807C23.6315 63.6835 23.107 63.9367 20.776 63.9367C18.1536 63.9367 17.9788 63.8101 17.396 61.8477C17.1046 60.7715 13.0836 46.718 8.53808 30.7022C3.99256 14.6864 0.14637 1.20277 0.029818 0.759647C-0.203285 0.189915 0.903954 0 4.28395 0H8.88773L15.9391 25.1315ZM19.6105 17.725C22.3494 27.4737 24.6805 35.45 24.8553 35.45C25.0884 35.45 27.0115 30.8921 29.226 25.3214C31.4405 19.6874 33.4218 15.0662 33.5967 14.9396C33.8298 14.7497 51.8953 58.999 53.3522 63.367C53.4687 63.6835 52.8277 63.9367 51.8953 63.9367C50.3218 63.9367 50.0887 63.4302 42.1632 43.6795C37.7343 32.538 33.8881 23.4223 33.7132 23.4223C33.4801 23.4223 31.3239 28.5499 28.9346 34.7537C26.6036 41.0207 24.5639 46.0217 24.4474 45.8951C24.3308 45.8318 21.5919 36.083 18.2701 24.3086C14.9484 12.4708 12.0929 2.21564 11.8598 1.39269C11.5101 0.189919 11.6267 0 13.0836 0H14.7153L19.6105 17.725ZM65.0073 30.8288C60.2287 47.8575 56.266 61.9743 56.1494 62.3541C55.9163 63.1138 56.0329 63.3669 43.5618 31.8417C38.2587 18.5479 33.7715 7.84966 33.5967 8.10287C33.4218 8.35609 31.4405 13.0405 29.2843 18.4846C27.128 23.992 25.2632 28.4866 25.1467 28.4866C25.0301 28.4866 24.6805 27.4737 24.3891 26.2077C23.8646 24.1186 24.156 23.0425 28.2353 12.9139C32.0815 3.29178 32.8391 1.83582 33.8881 2.02573C34.8787 2.15234 36.9184 6.77345 45.2518 27.7903C50.8463 41.8437 55.5666 53.0484 55.6832 52.6053C55.7998 52.2255 59.0049 40.9574 62.7346 27.537L69.6111 3.16519H65.357H61.1029L59.0632 10.2552C57.956 14.18 56.4408 19.6241 55.7415 22.2828C54.9839 25.0049 54.2263 27.2205 53.9932 27.2205C53.7601 27.2205 53.2939 26.3976 52.886 25.3847C52.3032 23.8021 52.5946 22.2829 55.217 12.9139C56.8487 7.0267 58.3056 1.70921 58.4804 1.07617C58.7718 0.126617 59.6459 0 66.2311 0H73.6904L65.0073 30.8288ZM112.619 18.8011L129.752 37.6656L129.81 21.9663V6.33037H131.267H132.724V26.0811V45.8951L130.801 43.6795C129.752 42.4767 120.369 32.1582 109.996 20.7002C91.1731 0.0632629 91.1731 0 93.3293 0C95.369 0 96.2431 0.886208 112.619 18.8011ZM138.551 31.9683V63.9367H136.046C133.598 63.9367 133.54 63.8733 116.407 45.2621C106.966 35.0069 99.0403 26.5875 98.8072 26.5875C98.5159 26.5875 98.341 34.1206 98.341 43.3629V60.1385H99.7979H101.255V46.7813V33.4243L102.712 35.3234C104.169 37.2225 104.169 37.2225 104.169 50.5796V63.9367H99.7979H95.4272V40.9574V18.0415L114.775 39.0583C125.381 50.6429 134.472 60.1385 134.88 60.1385C135.521 60.1385 135.638 54.6943 135.638 31.6518V3.16519H131.267H126.896V16.5855V29.9426L125.439 28.4866L123.982 27.0306V13.4837V0H131.267H138.551V31.9683ZM161.279 30.0692V60.1385H165.65H170.02L170.137 48.5538L170.312 37.0326L173.925 36.8427L177.48 36.6528L183.249 48.3639L188.96 60.1385H193.797H198.692L196.07 54.8843C189.718 42.0969 189.543 41.7171 190.475 41.084C192.34 39.8179 191.816 38.9317 199.566 54.9476L203.937 64L195.604 63.8101L187.212 63.6202L181.617 52.2255C176.722 42.2235 175.848 40.8308 174.508 40.6409L172.934 40.451V52.1622V63.9367H165.65H158.365V31.9683V0H159.822H161.279V30.0692ZM185.871 0.696342C195.487 2.91197 200.965 10.1285 200.907 20.5103C200.848 29.3729 196.419 36.2729 189.31 38.6785C188.144 39.0583 186.862 39.4381 186.454 39.628C185.871 39.8179 186.979 42.6033 190.126 49.0603L194.555 58.2394H192.806C191.174 58.2394 190.825 57.6696 186.046 48.1107C183.307 42.54 181.151 37.7289 181.326 37.4124C181.501 37.1592 183.016 36.7161 184.648 36.5262C193.564 35.3867 199.333 26.2077 197.41 16.269C195.604 6.83678 189.018 3.16519 173.692 3.16519H167.107V30.7022V58.2394H165.65H164.193V29.1196V0H173.517C178.587 0 184.181 0.316521 185.871 0.696342ZM47.6994 18.6745C51.3125 27.8536 54.4594 35.1968 54.6925 34.9436C54.8673 34.6903 56.8487 28.0435 59.0632 20.0672C63.026 5.8239 63.0842 5.69733 64.6577 5.69733C65.6484 5.69733 66.1728 6.01385 65.998 6.45698C65.8815 6.9001 63.4922 15.3827 60.6949 25.3214C57.956 35.2601 55.4501 43.7428 55.2753 44.1859C54.9256 44.8189 45.9511 23.1692 38.4918 3.92484C37.7343 1.89913 37.7343 1.89911 39.366 1.89911C40.9977 1.89911 41.2308 2.34219 47.6994 18.6745ZM111.628 26.6508C132.083 49.0603 132.724 49.8832 132.724 52.2255V54.6943L112.677 32.538L92.5717 10.4451V37.2225L92.5135 64L91.2314 63.8101L89.891 63.6202L89.7162 33.361C89.6579 16.7121 89.7745 3.1652 90.0076 3.2918C90.299 3.35511 99.9728 13.9268 111.628 26.6508ZM186.221 7.27993C191.816 9.11573 195.021 13.7368 195.079 19.9406C195.079 24.4985 194.205 27.2838 192.049 29.5628C188.785 32.9812 186.338 33.7408 177.771 34.0573L170.02 34.3105V32.7279V31.1453L177.188 30.8921C183.132 30.7022 184.764 30.3857 187.095 29.1829C194.147 25.448 193.506 13.8635 186.046 10.7616C185.114 10.3185 181.734 9.87537 178.645 9.68546L172.934 9.30563V11.0148C172.934 12.6607 172.934 12.6607 177.48 12.6607C179.927 12.6607 182.841 12.9139 183.948 13.2937C190.3 15.2562 190.941 23.359 185.056 26.5242C182.899 27.6636 181.442 27.8536 175.906 27.8536H169.379L169.554 23.5489C169.729 19.4342 169.787 19.3076 171.361 19.1177C172.876 18.9278 172.934 18.9911 172.934 21.7764V24.6884H177.188C183.715 24.6884 186.454 22.726 185.522 18.6745C185.056 16.5855 182.2 15.8259 175.149 15.8259H169.438V11.0781V6.33037H176.314C180.801 6.33037 184.24 6.64689 186.221 7.27993Z"
        fill="#2CEAEA" />
</svg>