<svg width="150" height="65" viewBox="0 0 150 65" fill="none" xmlns="http://www.w3.org/2000/svg">
    <path
        d="M83.3184 28.4325H136.068C139.761 28.4325 143.304 26.9657 145.917 24.3546C148.529 21.7435 149.998 18.2017 150 14.508C150 10.8129 148.532 7.26913 145.919 4.65629C143.306 2.04346 139.763 0.575589 136.068 0.575589H83.3184C79.6233 0.575589 76.0796 2.04346 73.4667 4.65629C70.8539 7.26913 69.386 10.8129 69.386 14.508V14.508C69.3881 18.2017 70.8569 21.7435 73.4695 24.3546C76.0821 26.9657 79.6247 28.4325 83.3184 28.4325V28.4325ZM13.9324 63.914H74.5663C78.2601 63.914 81.8026 62.4472 84.4152 59.8361C87.0279 57.225 88.4966 53.6832 88.4987 49.9895V49.9895C88.4987 46.2944 87.0309 42.7506 84.418 40.1378C81.8052 37.525 78.2614 36.0571 74.5663 36.0571H13.9324C10.2373 36.0571 6.69354 37.525 4.08071 40.1378C1.46787 42.7506 0 46.2944 0 49.9895H0C0.0020904 53.6832 1.47089 57.225 4.08349 59.8361C6.6961 62.4472 10.2387 63.914 13.9324 63.914V63.914ZM8.20805 27.9279H14.3582V5.45627H22.3218V0H0.244428V5.4405H8.20805V27.9279ZM30.3643 27.9279H36.5144V6.50494H36.5933L43.6896 27.9121H48.4204L55.7533 6.50494H55.8321V27.9121H61.9822V0H52.6388L46.1733 18.2138H46.0944L39.6683 0H30.3643V27.9279ZM120.188 43.8945C119.365 42.1794 118.143 40.6868 116.624 39.5422C115.048 38.3895 113.257 37.5638 111.357 37.1136C109.276 36.5937 107.139 36.3289 104.994 36.3252H95.7685V64.2373H105.822C107.841 64.247 109.85 63.9411 111.775 63.3305C113.592 62.7774 115.29 61.8896 116.781 60.7128C118.232 59.5354 119.408 58.0554 120.227 56.3762C121.113 54.5104 121.553 52.4644 121.512 50.3995C121.577 48.1582 121.123 45.9322 120.188 43.8945V43.8945ZM114.329 54.0896C113.868 55.1417 113.153 56.0629 112.248 56.7704C111.307 57.4618 110.233 57.9504 109.094 58.2054C107.801 58.5032 106.478 58.6488 105.151 58.6391H101.958V42.0811H105.585C106.83 42.0749 108.069 42.2421 109.267 42.5778C110.37 42.875 111.407 43.375 112.327 44.0522C113.169 44.7156 113.854 45.5587 114.329 46.5202C114.871 47.6288 115.141 48.8504 115.118 50.0841C115.152 51.461 114.883 52.8285 114.329 54.0896V54.0896ZM149.519 53.9871C149.241 53.2247 148.818 52.5233 148.273 51.9213C147.732 51.3225 147.085 50.8281 146.365 50.4626C145.58 50.0663 144.736 49.8 143.866 49.6741V49.5952C145.218 49.207 146.429 48.4345 147.351 47.3717C148.26 46.2638 148.731 44.8613 148.675 43.4294C148.734 42.1452 148.419 40.8715 147.769 39.7629C147.175 38.8591 146.361 38.1211 145.403 37.6183C144.373 37.0863 143.257 36.7394 142.107 36.5932C140.901 36.4209 139.683 36.3339 138.465 36.3331H128.057V64.2452H139.49C140.741 64.2459 141.988 64.1137 143.211 63.8509C144.402 63.6125 145.543 63.1725 146.586 62.5499C147.573 61.9611 148.409 61.1514 149.03 60.1845C149.695 59.0715 150.024 57.79 149.976 56.4944C149.978 55.6399 149.831 54.7916 149.543 53.9871H149.519ZM134.207 41.5685H138.386C138.875 41.5705 139.364 41.618 139.844 41.7105C140.311 41.7943 140.762 41.9457 141.185 42.1599C141.574 42.3724 141.905 42.6786 142.147 43.0509C142.413 43.4809 142.545 43.9805 142.525 44.4859C142.537 44.9803 142.42 45.4693 142.186 45.9052C141.974 46.288 141.67 46.6128 141.303 46.8513C140.921 47.0935 140.499 47.267 140.057 47.3639C139.6 47.4716 139.132 47.5245 138.662 47.5215H134.207V41.5685ZM143.448 57.3381C143.211 57.7495 142.881 58.1003 142.486 58.3631C142.085 58.6327 141.635 58.8203 141.161 58.9151C140.69 59.0212 140.209 59.074 139.726 59.0727H134.207V52.7649H138.859C139.386 52.7699 139.913 52.8094 140.436 52.8832C140.991 52.9594 141.534 53.1051 142.052 53.3169C142.536 53.5193 142.961 53.8391 143.29 54.2473C143.633 54.6996 143.809 55.2569 143.787 55.8242C143.812 56.3502 143.695 56.8732 143.448 57.3381V57.3381Z"
        fill="url(#paint0_linear_381_1463)" />
    <defs>
        <linearGradient id="paint0_linear_381_1463" x1="0" y1="32.1384" x2="150" y2="32.1384"
            gradientUnits="userSpaceOnUse">
            <stop stop-color="#90CEA1" />
            <stop offset="0.56" stop-color="#3CBEC9" />
            <stop offset="1" stop-color="#00B3E5" />
        </linearGradient>
    </defs>
</svg>