<svg version="1.1" id="svg8" xmlns:svg="http://www.w3.org/2000/svg"
    xmlns:inkscape="http://www.inkscape.org/namespaces/inkscape"
    xmlns:sodipodi="http://sodipodi.sourceforge.net/DTD/sodipodi-0.dtd" xmlns="http://www.w3.org/2000/svg"
    xmlns:xlink="http://www.w3.org/1999/xlink" x="0px" y="0px" viewBox="0 0 117.4 27"
    style="enable-background:new 0 0 117.4 27;" xml:space="preserve">
    <style type="text/css">
        .st0 {
            fill: #0264FF;
        }
    </style>
    <sodipodi:namedview bordercolor="#666666" borderopacity="1.0" id="namedview10" inkscape:pagecheckerboard="0"
        inkscape:pageopacity="0.0" inkscape:pageshadow="2" pagecolor="#ffffff">
    </sodipodi:namedview>
    <path id="path2" class="st0" d="M30,6.9C30,2.2,25.1,0,19.2,0C13,0,7.2,2.8,5.1,7.1c-0.6,1.1-0.9,2.4-0.9,3.7c0,1.1,0.3,2.2,0.9,3.1
	c0.9,1.3,2.5,2.2,4.9,2.2c2.9,0,5.2-1.6,5.2-4.4c0,0,0-0.8-0.9-0.8c-0.7,0-0.9,0.5-0.9,0.8c0.1,2.2-1.2,3.9-3.5,3.9
	c-2.6,0-3.7-2.2-3.7-4.5c0-4.8,3.6-8,7.4-9.4c1.8-0.7,3.6-1,5.5-1c4.3,0,7.8,1.6,7.8,6c0,3.7-3.1,6.8-6.8,7.1l0.2-0.5
	c0.8-2.7,1.7-5.6,3.2-7.8c0.1-0.1,0.2-0.3,0.4-0.6l-0.2-0.3c-0.3,0.2-0.6,0.4-0.9,0.6c-7.1,5.5-7.3,21-16.7,21c-0.3,0-0.6,0-1-0.1
	c-2-0.3-3-1.6-3-3.5c0-0.4,0.1-0.9,0.1-1.1c0-0.5-0.4-1-0.9-1H1.2c-0.8,0-1.2,0.7-1.2,1.6c-0.1,2.7,2,4.3,5.1,4.6c0.3,0,0.7,0,1.1,0
	c7.3,0,11.8-5.5,13.8-12.3c1-0.1,1.9-0.3,2.9-0.6C26.2,13.2,30,10.9,30,6.9z" />
    <path id="path4" class="st0" d="M100,8.5h-2.6l-0.6,1.4l-1,2.3h-1.2l-0.4,0.8h1.2L94,16.2c-1.1,2.3-2.8,4.6-3.7,4.6
	c-0.2,0-0.3-0.1-0.3-0.3c0-0.2,0.1-0.4,0.3-1c0.3-0.7,0.8-1.7,1.2-2.5c0.5-1.1,1.4-2.8,1.4-3.6c0-0.8-0.5-1.5-1.6-1.5
	c-1.2,0-2.3,0.7-3.3,1.7l0.6-1.5h-2.4l-2,4.5c-0.8,1.6-2.4,4.2-3.4,4.2c-0.2,0-0.3-0.1-0.3-0.3c0-0.2,0.1-0.4,0.2-0.6
	c0.1-0.2,1.3-3,1.3-3l2.2-4.9h-2.6l-2.1,4.8c-0.6,1.5-2.3,4-3.3,4c-0.2,0-0.3-0.1-0.4-0.3v-0.1c0-0.3,0.2-0.7,0.3-1.1L77,17l2.3-4.9
	h-2.6l-0.5,1.1c-0.4,0.8-1,1.6-2.1,1.6c-0.5,0-0.7-0.2-0.8-0.4c-0.2-1.7-1.2-2.5-2.8-2.5c-2.2,0-3.7,1.3-4.7,2.8
	c-0.7,1.1-1.2,2.2-1.6,3.4c-0.9,1.5-1.9,2.7-2.7,2.7c-0.2,0-0.3-0.1-0.3-0.4c0-0.3,0.3-0.8,0.3-1.1l1.7-3.6c0.5-1.1,0.8-1.8,0.8-2.6
	c0-0.8-0.5-1.3-1.4-1.3c-1.2,0-2.6,0.7-3.6,1.9c0-0.2,0-0.4,0-0.6c0-0.9-0.4-1.3-1.3-1.3c-1.1,0-2.3,0.7-3.3,1.9l0.7-1.7h-2.4
	l-2,4.5c-0.9,2.1-2.5,4.2-3.3,4.2c-0.2,0-0.3-0.1-0.3-0.4c0-0.4,0.5-1.4,0.6-1.8l2.7-6c0.2-0.5-1.1-0.7-2.7-0.7
	c-1.7,0-3.4,0.8-4.6,1.9c-0.9,0.7-1.5,1.1-1.9,1.1c-0.2,0-0.2-0.1-0.2-0.2c0-0.4,0.9-1.4,0.9-2.2c0-0.4-0.2-0.6-0.7-0.6
	c-0.9,0-2.1,0.9-2.9,1.8l0.7-1.7h-2.3l-2,4.5c-0.9,2.1-2.5,4.3-3.4,4.3c-0.2,0-0.3-0.1-0.3-0.4c0-0.4,0.4-1.4,0.7-1.9l2.7-6
	c0.2-0.5-1.1-0.7-2.7-0.7c-2.4,0-4.7,1.6-5.9,3.3c-1.4,1.8-2.3,3.7-2.3,5.2c0,1.2,0.6,2,1.9,2c1.4,0,2.6-1.1,3.3-2
	c0,0.2-0.1,0.3-0.1,0.5c0,0.9,0.3,1.5,1.4,1.5c0.9,0,2.2-0.8,3.1-2l-0.8,1.8h2.5l2.5-5.6c0.8-1.8,1.7-2.8,2-2.8c0.1,0,0.1,0,0.1,0.1
	c0,0.2-0.4,0.7-0.4,1.2c0,0.5,0.3,0.8,0.9,0.8c0.5,0,1.1-0.3,1.7-0.6c-1.3,1.7-2.1,3.5-2.1,5c0,1.2,0.6,2,1.9,2
	c1.4,0,2.6-1.3,3.3-2.1c0,0.2,0,0.4,0,0.6c0,0.8,0.5,1.5,1.4,1.5c1.1,0,1.9-0.7,3-2l-0.8,1.8h2.6l2.4-5.4c1-2.3,2.4-3.6,3.1-3.6
	c0.2,0,0.3,0.1,0.3,0.3v0.1c0,0.3-0.1,0.5-0.2,0.8l-3.4,7.8h2.6l2.4-5.5c1-2.3,2.2-3.5,3-3.5c0.3,0,0.4,0.1,0.4,0.4
	c0,0.3-0.1,0.6-0.2,0.9L59,19.6c-0.2,0.5-0.3,1-0.4,1.5c0,0.8,0.4,1.4,1.6,1.4c1.5,0,2.6-1.1,3.9-2.8V20c0.1,1.4,0.9,2.5,2.9,2.5
	c2.4,0,4.3-1.6,5.4-4.2c0.4-0.9,0.7-1.9,0.8-2.9c0.3,0.1,0.6,0.2,0.8,0.2c0.4,0,0.8-0.1,1.1-0.3l-0.4,0.9c-0.5,1-1,2.1-1.4,3
	c-0.3,0.5-0.4,1.1-0.5,1.7c0,0.9,0.5,1.6,1.6,1.6s2.5-1,3.5-2.4h0C78,20.4,78,20.7,78,21c0,0.8,0.2,1.5,1.3,1.5c1.2,0,2.2-0.9,3.2-2
	l-0.8,1.8h2.6l2.1-4.7c1.2-2.7,2.4-4.3,3.5-4.3c0.2,0,0.3,0.1,0.4,0.3v0.1c0,0.5-0.6,1.7-1.2,2.9c-0.5,1.1-0.9,2-1.2,2.6
	c-0.3,0.6-0.4,1.2-0.5,1.8c0,0.8,0.5,1.4,1.5,1.4c1.5,0,3-1.5,3.9-2.6c-0.2,0.5-0.3,1.1-0.3,1.6c0,1.5,0.9,2.3,2.2,2.3
	c0.8,0,1.7-0.3,2.3-0.8c1-0.7,1.8-1.7,2.5-2.7l-0.5-0.4c-0.6,0.9-1.3,1.7-2,2.2c-0.4,0.3-0.8,0.5-1.3,0.5c-0.5,0-0.9-0.3-0.9-1
	c0-0.7,0.3-1.6,0.8-2.9c0,0,0.7-1.6,1.4-3.1c0.6-1.3,1.1-2.5,1.2-2.8h1.7l0.3-0.8h-1.7L100,8.5z M26.5,20.9c-0.4,0-0.6-0.1-0.6-0.6
	c0-1.3,1.1-3.5,2.4-5.3c0.9-1.2,2.1-2.2,3.4-2.2l-1.6,3.7C28.8,19.2,27.5,20.9,26.5,20.9z M42.6,20.9c-0.4,0-0.6-0.1-0.6-0.6
	c0-1.3,1.1-3.5,2.4-5.3c0.9-1.2,2.1-2.2,3.4-2.2l-1.6,3.7C44.9,19.3,43.6,20.9,42.6,20.9z M71.2,13.8c-0.1,1.4-1.3,4.8-2.7,6.8
	c-0.6,0.8-1.1,1.1-1.5,1.1c-0.6,0-0.8-0.5-0.7-1.2c0.1-1.3,1.2-4.2,2.6-6.3c0.7-0.9,1.1-1.3,1.6-1.3C71.1,12.8,71.2,13.2,71.2,13.8z
	" />
    <path id="path6" class="st0"
        d="M111.4,12.1l2.4-5.5H111l-2.4,5.5h-6l-1,2.3h6l-2.4,5.5h2.8l2.4-5.5h6l1-2.3L111.4,12.1z" />
</svg>